PathFileType	4	(X/Y/Z)	C:\Users\°ÂÌØÂü\Desktop\20210112\bx_y_5_502-Unnamed.trc
DataRate	CameraRate	NumFrames	NumMarkers	Units	OrigDataRate	OrigDataStartFrame	OrigNumFrames
50.00	50.00	       8	0	mm	50.00	392	       447
Frame#	Time	
		

392	7.820	-725.36292	290.22275	1539.38159	-686.00714	76.10421	580.49469	-672.17621	266.57230	746.58771				-621.38354	268.38922	873.57733	-571.76727	198.86578	820.68292	-712.43475	-69.42726	1556.08105	-708.72711	245.38887	637.77368	-675.03680	173.30215	155.75746	-593.77563	-19.64573	1052.19995	-718.39685	239.79987	575.48883	-764.19366	250.62091	505.08560	-668.86786	197.85101	531.65210	-625.75732	103.61091	1440.57080				-770.35950	222.10526	206.12599	-882.63654	296.12796	144.51392	-675.74799	53.61187	160.03368	-586.25665	-9.59150	807.67615	-594.15271	222.98705	172.72656	-666.12970	298.76376	160.64037	-628.65930	306.91275	162.10812	-560.45428	262.33865	165.12560	-527.99017	304.09348	146.41525	-706.33356	117.06869	1850.11707	-571.63464	208.84364	1069.98938	-517.66040	-72.68916	142.58440	-561.99530	-40.86857	163.89745	-603.96637	18.04827	167.80922	-782.51703	93.07494	1031.82751	-710.53870	151.33197	216.02446	-795.34802	54.60023	174.56511	-795.94550	172.21333	183.91669	-761.52496	-37.28635	489.98935	-666.28156	-69.46772	160.73920	-769.65027	-7.07858	206.79187	-875.97748	-78.88188	141.21204	-695.08978	-33.47850	613.90350	-624.61926	-79.61504	158.31630	-674.32422	-54.85222	708.67786	-716.99023	75.27020	217.06757	-709.65240	-29.59269	568.23633							-662.74103	13.45843	520.70386	
393	7.840	-725.09399	290.65976	1539.14453	-686.06238	76.42119	580.49225	-672.24475	266.42731	747.25623				-622.00024	267.40448	872.72253	-571.80609	199.53911	820.49023	-711.79938	-69.02324	1556.07019	-708.78082	245.40622	637.67334	-675.15607	173.19321	155.63841	-593.81842	-19.45626	1052.22998	-718.48450	239.78165	575.55511	-764.27881	250.70329	504.97418	-668.95392	197.93114	531.59076	-625.80493	103.89449	1440.47949				-770.32367	222.30038	205.78967	-882.55695	296.07217	144.59824	-675.50262	53.47427	159.92757	-586.32306	-9.12673	807.59833	-594.15271	222.98705	172.72656	-666.18524	298.89636	160.63165	-628.60236	306.70963	161.77650	-560.49835	261.99185	165.01372	-527.91522	304.12939	146.13380	-704.38623	117.31849	1850.26404	-571.57086	209.10178	1069.88269	-517.60327	-72.76603	142.52589	-561.75183	-41.27293	163.95912	-603.86279	18.05155	167.59473	-782.66589	93.61371	1031.95703	-710.85846	151.46585	216.21861	-795.34448	54.76791	174.47362	-795.89685	172.29352	183.79353	-761.53662	-37.10131	490.12735	-666.26251	-69.10284	160.87619	-769.45630	-6.85383	206.74265	-876.07397	-78.87447	141.15222	-695.00665	-33.10375	614.07739	-624.76276	-79.68719	158.35156	-674.42841	-54.66381	708.70764	-716.93176	75.15060	216.83348	-709.63922	-29.19888	568.40173							-662.97394	13.78242	520.43994	
394	7.860	-724.78461	291.10788	1539.12732	-685.79266	76.60055	580.27393	-672.33203	267.05399	746.46991				-621.49396	268.95868	873.58600	-572.00598	199.82167	820.15656	-710.98102	-68.65212	1556.11108	-709.17957	245.49516	637.31091	-674.78870	173.36867	156.23911	-593.68927	-18.85847	1052.22278	-718.52380	240.30894	575.41895	-764.36029	251.03075	504.98444	-668.86786	198.11949	531.63574	-625.65088	104.51801	1440.33850				-770.33167	222.17670	206.00250	-882.58386	296.12854	144.57410	-675.50262	53.47427	159.92757	-586.12646	-8.57175	807.55371	-594.21069	223.04549	172.77295	-666.23694	298.84518	160.52765	-628.78577	307.01492	161.98418	-560.41705	262.09802	164.97949	-528.03790	304.30890	146.30270	-702.51074	118.11655	1850.38403	-571.39917	209.48706	1069.98547	-517.65082	-72.88029	142.53416	-561.94293	-41.18330	163.90089	-603.70734	18.21390	167.34624	-782.58081	93.86918	1031.68213	-710.67938	151.53101	216.09123	-795.29706	54.80189	174.60236	-795.89685	172.29352	183.79353	-761.55707	-36.90347	490.01764	-666.24744	-69.06918	160.81239	-769.27496	-6.48726	206.51122	-875.99298	-78.87768	141.19183	-695.00494	-32.84159	613.74316	-624.54584	-79.52116	158.16843	-674.56213	-54.51188	708.67767	-716.78149	75.20051	216.74448	-710.05054	-28.62281	568.31995							-662.97974	13.92976	520.48584	
395	7.880	-724.38599	291.62787	1539.16956	-686.12286	77.07755	580.05219	-672.53522	267.52008	746.24567				-621.63745	269.25031	873.44116	-572.19232	199.84103	820.25000	-710.57886	-68.39842	1555.81738	-709.49280	245.57928	637.16931	-675.03680	173.30215	155.75746	-593.66113	-18.57253	1051.97058	-718.90771	240.72064	575.63226	-764.62067	250.80742	504.81415	-669.15967	198.24977	531.93964	-625.37793	104.89083	1439.82581				-770.28363	222.27629	205.76624	-882.50342	296.22003	144.72592	-675.30682	53.55309	159.89038	-586.20197	-8.40666	807.43451	-594.24158	222.89502	172.96967	-666.03772	298.91275	160.54292	-628.61230	306.88351	162.00374	-560.60242	262.32562	165.15018	-527.96155	304.16415	146.30737	-701.03149	118.63330	1850.28198	-571.31824	210.24722	1069.90088	-517.68829	-72.50508	142.57184	-561.62921	-41.14120	163.69868	-603.75153	18.35712	167.30562	-782.65668	93.94659	1031.76233	-710.66772	151.40628	216.06169	-795.26227	54.85468	174.56100	-795.89685	172.29352	183.79353	-761.45380	-36.67305	490.04370	-666.19171	-69.16761	160.86119	-769.20514	-6.46959	206.71220	-875.64880	-79.04969	141.18465	-695.19794	-32.16920	613.32037	-624.59985	-79.60123	158.43149	-674.79572	-53.74266	708.08325	-716.97437	75.27161	216.73332	-710.27997	-28.52750	568.46741							-662.77502	13.98203	520.64215	
396	7.900	-723.87097	291.87534	1539.15137	-686.18561	77.57355	579.88165	-672.57568	267.77573	746.38824				-621.74091	269.80618	873.10980	-572.46808	200.26094	819.76483	-710.16992	-68.09863	1555.59998	-709.57397	245.96454	636.99902	-675.03680	173.30215	155.75746	-593.72784	-18.23472	1051.80237	-719.21875	240.83992	575.46570	-764.46283	251.41324	504.89417	-669.55267	198.45604	531.73041	-624.76282	105.47671	1439.74548				-770.19849	222.29497	205.83568	-882.61194	296.15863	144.60854	-675.58344	53.81224	159.80954	-586.38171	-7.81622	806.92773	-594.17499	222.91267	172.83226	-666.23694	298.84518	160.52765	-628.60236	306.70963	161.77650	-560.39392	262.05215	165.16628	-527.99841	304.00455	146.44089	-699.11786	119.39680	1850.17004	-571.24731	210.93474	1069.71558	-517.58032	-72.61386	142.33469	-561.47449	-41.24909	163.71057	-603.70435	18.29004	167.27954	-782.77063	94.57701	1031.77234	-710.77551	151.42603	216.15414	-795.17865	54.94806	174.54634	-795.94550	172.21333	183.91669	-761.37384	-36.42589	489.98254	-666.13892	-69.03432	161.06514	-769.17377	-6.33609	206.62273	-875.64880	-79.04969	141.18465	-695.39758	-31.74106	613.42212	-624.56915	-79.39153	158.26582	-674.93353	-53.55394	708.23865	-716.80786	75.33207	216.31169	-710.39758	-28.06581	568.24878							-662.63800	14.48513	520.67096	
397	7.920	-723.37494	292.00397	1539.12549	-686.36871	78.01510	579.81213	-672.81116	268.02985	746.43451				-622.05096	270.26077	872.76605	-572.43439	200.33699	819.66058	-709.49304	-67.71767	1555.33789	-709.78192	246.18231	637.11066	-675.00629	173.01518	156.15527	-593.62762	-17.45994	1051.75916	-719.21478	240.97174	575.59998	-764.58038	251.68701	504.59915	-669.82275	198.62724	532.01581	-624.21265	105.96787	1439.49280				-770.37433	222.19507	205.88930	-882.60059	296.08249	144.54660	-675.32855	53.90013	159.38304	-586.23645	-7.11109	806.83246	-594.17499	222.91267	172.83226	-666.16412	298.91519	160.53311	-628.64539	306.92133	161.91566	-560.48315	262.15277	165.25389	-528.16150	304.17200	146.42805	-697.27863	120.12048	1850.19897	-571.13800	211.36203	1069.42578	-517.65240	-72.60958	142.45448	-561.47449	-41.24909	163.71057	-603.70435	18.29004	167.27954	-782.80798	94.84993	1031.73242	-710.96088	151.61923	216.03831	-795.21167	55.16127	174.71062	-795.85229	172.28455	183.87280	-761.30896	-36.02496	490.09717	-666.29700	-68.90096	161.21869	-769.02838	-6.28569	206.76947	-875.99457	-78.94872	141.12155	-695.62323	-31.18861	613.73975	-624.61090	-79.40719	158.49954	-674.75476	-52.99033	707.82593	-716.44763	75.78683	216.49216	-710.19452	-27.87851	568.20789							-662.61035	14.91403	520.72687	
398	7.940	-722.79120	292.53900	1539.32922	-686.10913	78.45563	579.84064	-672.91321	268.10577	746.09161				-622.30841	269.76810	872.64825	-572.21729	200.71414	819.72473	-709.09375	-67.66100	1555.27039	-709.98596	246.53981	637.07629	-675.13342	172.99902	156.18327	-593.76630	-16.90492	1051.58862	-719.41687	241.79109	575.80267	-764.65765	252.05449	504.85147	-669.62378	198.82480	532.24603	-624.04175	105.91294	1439.34509				-770.45599	222.19427	205.75359	-882.67053	296.19333	144.58157	-675.53058	54.14684	159.34593	-586.28650	-7.00017	806.67371	-594.27979	222.90103	172.87299	-666.16412	298.91519	160.53311	-628.85095	307.02713	161.96600	-560.48535	262.14804	164.97737	-528.07770	304.24625	146.45256	-695.86322	120.70570	1850.19482	-571.16260	211.67642	1069.10754	-517.68671	-72.77579	142.65150	-561.47449	-41.24909	163.71057	-603.53021	18.39915	167.16945	-782.79529	95.10123	1031.77869	-710.96088	151.61923	216.03831	-795.17548	55.23437	174.68346	-795.99304	172.20384	183.84486	-761.53296	-35.87667	490.37189	-666.19653	-68.87789	161.31238	-769.05042	-6.05135	206.87338	-875.93359	-78.96604	141.13327	-695.66180	-31.03877	613.72174	-624.40375	-79.26253	158.69518	-674.60773	-52.81110	707.77411	-716.44763	75.78683	216.49216	-710.58185	-27.27689	568.10956							-662.81708	15.43295	520.93616	
399	7.960	-722.56299	292.82755	1539.37427	-686.74652	78.80718	579.74036	-673.22125	268.58743	746.09039				-622.20258	270.18893	872.51703	-572.72833	201.12494	819.49689	-708.17731	-67.30240	1555.01514	-710.38147	247.07069	637.34955	-675.16394	173.28600	155.78546	-593.63043	-16.47216	1051.57214	-719.78143	241.72589	575.58295	-765.04620	252.48096	504.66821	-670.28217	199.14581	531.77344	-623.99664	105.94723	1439.27161				-770.41913	222.38034	205.65292	-882.60010	295.98544	144.47417	-675.46063	54.04338	159.12616	-586.09583	-6.52296	806.73169	-594.24158	222.89502	172.96967	-666.16229	298.79160	160.43344	-628.91595	306.97232	161.87891	-560.43304	262.06992	165.02534	-528.16980	304.08307	146.45369	-694.11267	121.26778	1850.22327	-571.11646	211.85083	1069.10950	-517.71210	-72.54200	142.25554	-561.68262	-41.95347	162.87926	-603.63654	18.38953	167.08430	-782.40387	95.79215	1031.51306	-710.82404	151.52840	216.29459	-795.17548	55.23437	174.68346	-795.89685	172.29352	183.79353	-761.75159	-35.49305	490.05002	-666.26746	-68.63556	161.33134	-768.85052	-5.92484	206.70374	-875.93359	-78.96604	141.13327	-695.65222	-31.22099	613.93182	-624.48633	-79.08724	158.63803	-674.64819	-52.41786	707.82336	-716.44189	76.02155	216.20964	-710.62592	-27.01833	568.19006							-663.25537	16.18511	521.03033	
